<?xml version="1.0" encoding="utf-8"?>
<!-- Svg Vector Icons : http://www.onlinewebfonts.com/icon -->
<!DOCTYPE svg PUBLIC "-//W3C//DTD SVG 1.1//EN" "http://www.w3.org/Graphics/SVG/1.1/DTD/svg11.dtd">
<svg version="1.1" xmlns="http://www.w3.org/2000/svg" xmlns:xlink="http://www.w3.org/1999/xlink" x="0px" y="0px" viewBox="0 0 256 256" enable-background="new 0 0 256 256" xml:space="preserve">
<metadata> Svg Vector Icons : http://www.onlinewebfonts.com/icon </metadata>
<g><g><g><path fill="#000000" d="M10,37.5v3.4L27.9,41c17.5,0.1,17.9,0.1,19.9,1.2c2.5,1.3,4.6,4.2,5.3,7.2c0.3,1.2,5.2,28,10.8,59.4c11.5,64,10.5,60.1,15.3,63l2.3,1.4h62.8h62.8l2-1.1c2.3-1.2,4.6-3.6,5.4-5.7c0.3-0.8,7.6-25,16.1-53.8C244.2,67.3,246.2,60,246,58.1c-0.5-4.6-3.3-8-7.8-9.3c-2.6-0.8-22.4-0.9-92.3-0.3l-43.5,0.3v3.4v3.3l67-0.3l67.1-0.4l1.4,1.5c0.8,0.8,1.5,1.9,1.5,2.3c0,1.1-30.9,105.2-31.7,106.5c-0.2,0.5-0.9,1.1-1.4,1.4c-0.6,0.3-21.3,0.5-62.2,0.5c-58.4,0-61.4,0-62.4-0.9c-1-0.8-2-6.1-11.6-59.5C58.7,42,59.2,44.2,54.8,39.9c-1.2-1.2-3.7-3-5.5-3.8l-3.2-1.6l-18.1-0.1L10,34.2V37.5L10,37.5z"/><path fill="#000000" d="M91.1,186.2c-8.7,2.8-14.7,11.9-13.1,20.1c1.3,7.1,6.6,12.9,13.7,14.9c7.8,2.3,16.8-2.2,20.7-10.1c1.2-2.6,1.4-3.4,1.4-7.4c0-4.2-0.1-4.8-1.6-7.8c-1.9-3.8-5.3-7.1-9.2-8.9C99.8,185.6,94.2,185.2,91.1,186.2z M102.3,194c3.2,2,4.9,5.4,4.9,9.7c0,3.9-1.1,6.4-3.7,8.7c-3.4,3.1-8.7,3.6-13.3,1.4c-7.9-3.8-7.7-16.6,0.4-20.4C94.1,191.8,99.1,192,102.3,194z"/><path fill="#000000" d="M189.6,186.4c-5.2,1.8-9,5.4-11.4,10.5c-1.1,2.3-1.3,3.4-1.3,6.8c0,3.6,0.2,4.5,1.5,7.2c1.9,3.8,5.7,7.7,9.6,9.4c2.3,1.1,3.4,1.3,6.9,1.3c3.4,0,4.5-0.2,6.9-1.3c3.8-1.8,7.7-5.6,9.6-9.4c1.3-2.8,1.5-3.6,1.5-7.2c0-3.6-0.2-4.5-1.5-7.3c-3.1-6.5-9.1-10.6-16-10.8C193,185.6,191.1,185.9,189.6,186.4z M199.4,193c2.8,1,5.7,4.1,6.6,7.1c0.7,2.6,0.4,6.7-0.7,8.9c-2.1,4.2-5.2,5.9-10.3,5.9c-5.4,0-8.4-1.9-10.5-6.5c-1.9-4.2-1.1-9.2,2-12.7C189.4,192.5,194.5,191.4,199.4,193z"/></g></g></g>
</svg>