<?xml version="1.0" encoding="utf-8"?>
<!-- Generator: Adobe Illustrator 22.0.1, SVG Export Plug-In . SVG Version: 6.00 Build 0)  -->
<svg version="1.1" id="Layer_1" xmlns="http://www.w3.org/2000/svg" xmlns:xlink="http://www.w3.org/1999/xlink" x="0px" y="0px"
	 viewBox="0 0 2500 2372" style="enable-background:new 0 0 2500 2372;" xml:space="preserve">
<style type="text/css">
	.st0{fill-rule:evenodd;clip-rule:evenodd;fill:url(#SVGID_1_);}
</style>
<title>logo-zalo-vector</title>
<linearGradient id="SVGID_1_" gradientUnits="userSpaceOnUse" x1="202.0486" y1="1188.504" x2="2290.1536" y2="1188.504">
	<stop  offset="0.1145" style="stop-color:#EC6721"/>
	<stop  offset="0.8184" style="stop-color:#ED1C24"/>
</linearGradient>
<path class="st0" d="M1628.8,1774.1c-13.7,113.2-82.3,203.9-188.6,249.3c-59.2,25.3-138.6,38.9-201.5,34.7
	c-98.1-3.8-190.3-27.6-275.2-71.2c-30.4-15.6-75.6-46.7-110.3-75.9c-8.8-7.4-9.9-12.1-4-20.3c3.1-4.7,8.9-13.3,21.7-32.1
	c18.6-27.2,20.9-30.6,23-33.8c5.9-9.1,15.6-9.9,25.1-2.4c1,0.8,1,0.8,1.8,1.4c1.6,1.2,1.6,1.2,5.2,4.1c3.7,2.9,5.9,4.6,6.8,5.3
	c91.6,71.8,198.3,113.2,306.1,117.3c149.9-2,257.7-69.4,277-172.9c21.2-113.9-68.2-212.3-243.1-267.1
	c-54.7-17.1-193-72.5-218.5-87.4c-119.7-70.2-175.7-162.3-167.8-275.9c12.2-157.5,158.4-275,343.2-275.8
	c82.6-0.2,165.1,17,244.3,50.4c28,11.8,78.1,39.1,95.4,52c9.9,7.3,11.9,15.8,6.2,25c-3.2,5.3-8.5,13.8-19.6,31.4l-0.1,0.2
	c-14.6,23.2-15.1,23.9-18.4,29.4c-5.8,8.8-12.6,9.7-23.1,3c-84.8-56.9-178.7-85.6-282.1-87.7c-128.7,2.5-225.1,79.1-231.4,183.5
	c-1.7,94.2,69,163,221.6,215.5C1532.5,1473.3,1651.1,1590,1628.8,1774.1 M1246.1,147.5c201.7,0,366.2,191.4,373.9,431.1H872.3
	C880,339,1044.4,147.5,1246.1,147.5 M2290.2,623.7c0-24.9-20.1-45.1-44.8-45.1h-484.6C1748.9,262.2,1523,9.9,1246.1,9.9
	c-276.9,0-502.7,252.3-514.6,568.7l-485.3,0c-24.3,0.4-43.9,20.4-43.9,45c0,1.2,0,2.3,0.1,3.5H202l69.2,1525.1
	c0,4.2,0.2,8.5,0.5,12.8c0.1,1,0.1,1.9,0.2,2.9l0.1,3.2l0.2,0.2c10.5,106.1,87.5,191.6,192.3,195.5l0.2,0.2h1539.5
	c0.7,0,1.5,0,2.2,0c0.7,0,1.5,0,2.2,0h3.3l0.1-0.1c106.5-2.9,192.9-89.6,202-197l0.1-0.1l0.1-1.4c0.1-1.1,0.2-2.2,0.2-3.4
	c0.2-2.7,0.3-5.4,0.3-8.1L2290.1,626h-0.1C2290.1,625.2,2290.2,624.4,2290.2,623.7"/>
</svg>
